<svg width="25" height="26" viewBox="0 0 25 26" fill="none" xmlns="http://www.w3.org/2000/svg">
<path d="M9.78613 10.0372C11.6032 10.6966 13.5836 10.6966 15.4007 10.0372" stroke="#002E26" stroke-width="2.29688" stroke-linecap="round" stroke-linejoin="round"/>
<path d="M17.5142 2.86084H7.67333C5.49895 2.86084 3.73291 4.6319 3.73291 6.78974V21.1312C3.73291 22.9633 5.04979 23.7369 6.6627 22.8514L11.6444 20.093C12.1752 19.7978 13.0327 19.7978 13.5533 20.093L18.535 22.8514C20.1479 23.7471 21.4648 22.9735 21.4648 21.1312V6.78974C21.4546 4.6319 19.6885 2.86084 17.5142 2.86084Z" stroke="#002E26" stroke-width="2.29688" stroke-linecap="round" stroke-linejoin="round"/>
<path d="M17.5142 2.86084H7.67333C5.49895 2.86084 3.73291 4.6319 3.73291 6.78974V21.1312C3.73291 22.9633 5.04979 23.7369 6.6627 22.8514L11.6444 20.093C12.1752 19.7978 13.0327 19.7978 13.5533 20.093L18.535 22.8514C20.1479 23.7471 21.4648 22.9735 21.4648 21.1312V6.78974C21.4546 4.6319 19.6885 2.86084 17.5142 2.86084Z" stroke="#002E26" stroke-width="2.29688" stroke-linecap="round" stroke-linejoin="round"/>
</svg>
